<svg xmlns="http://www.w3.org/2000/svg" xmlns:xlink="http://www.w3.org/1999/xlink" version="1.1" width="256" height="256" viewBox="0 0 256 256" xml:space="preserve">
<desc>Created with Fabric.js 1.7.22</desc>
<defs>
</defs>
<g transform="translate(128 128) scale(0.72 0.72)" style="">
	<g style="stroke: none; stroke-width: 0; stroke-dasharray: none; stroke-linecap: butt; stroke-linejoin: miter; stroke-miterlimit: 10; fill: none; fill-rule: nonzero; opacity: 1;" transform="translate(-175.05 -175.05000000000004) scale(3.89 3.89)" >
	<path d="M 0 45 C 0 20.147 20.147 0 45 0 c 24.853 0 45 20.147 45 45 S 69.853 90 45 90 C 20.147 90 0 69.853 0 45 z M 46.209 68.541 l 18.366 -18.366 c 0.668 -0.668 0.668 -1.75 0 -2.418 l -6.055 -6.055 c -0.668 -0.668 -1.751 -0.668 -2.418 0 l -5.11 5.111 V 22.668 c 0 -0.944 -0.766 -1.71 -1.71 -1.71 h -8.563 c -0.944 0 -1.71 0.766 -1.71 1.71 v 24.145 l -5.111 -5.111 c -0.668 -0.668 -1.751 -0.668 -2.418 0 l -6.055 6.055 c -0.668 0.668 -0.668 1.751 0 2.418 l 18.366 18.366 C 44.459 69.209 45.542 69.209 46.209 68.541 z" style="stroke: none; stroke-width: 1; stroke-dasharray: none; stroke-linecap: butt; stroke-linejoin: miter; stroke-miterlimit: 10; fill: rgb(91,160,208); fill-rule: nonzero; opacity: 1;" transform=" matrix(1 0 0 1 0 0) " stroke-linecap="round" />
</g>
</g>
</svg>