<svg xmlns="http://www.w3.org/2000/svg" xmlns:xlink="http://www.w3.org/1999/xlink" version="1.1" width="256" height="256" viewBox="0 0 256 256" xml:space="preserve">
<desc>Created with Fabric.js 1.7.22</desc>
<defs>
</defs>
<g transform="translate(128 128) scale(0.72 0.72)" style="">
	<g style="stroke: none; stroke-width: 0; stroke-dasharray: none; stroke-linecap: butt; stroke-linejoin: miter; stroke-miterlimit: 10; fill: none; fill-rule: nonzero; opacity: 1;" transform="translate(-175.05 -175.05000000000004) scale(3.89 3.89)" >
	<rect x="15.66" y="0" rx="0" ry="0" width="58.68" height="58.68" style="stroke: none; stroke-width: 1; stroke-dasharray: none; stroke-linecap: butt; stroke-linejoin: miter; stroke-miterlimit: 10; fill: rgb(255,255,255); fill-rule: nonzero; opacity: 1;" transform=" matrix(1 0 0 1 0 0) "/>
	<path d="M 76.503 0 H 13.497 c -1.274 0 -2.317 1.043 -2.317 2.317 v 63.007 c 0 1.274 1.043 2.317 2.317 2.317 h 63.007 c 1.274 0 2.317 -1.043 2.317 -2.317 V 2.317 C 78.82 1.043 77.778 0 76.503 0 z M 67.997 46.323 c -0.835 1.901 -2.356 5.386 -2.96 6.926 c -0.127 0.324 -0.316 0.621 -0.579 0.849 c -6.515 5.648 -19.478 -1.234 -29.4 -11.156 c -9.922 -9.922 -16.803 -22.885 -11.156 -29.4 c 0.228 -0.263 0.525 -0.452 0.849 -0.58 c 1.54 -0.604 5.025 -2.125 6.926 -2.96 c 0.742 -0.326 1.608 -0.046 2.022 0.652 L 39.5 20.43 c 0.287 0.484 0.3 1.082 0.034 1.578 l -3.597 6.7 c -0.335 0.624 -0.221 1.393 0.279 1.894 l 5.591 5.591 l 5.591 5.591 c 0.501 0.501 1.27 0.614 1.894 0.279 l 6.7 -3.597 c 0.496 -0.266 1.094 -0.253 1.578 0.034 l 9.776 5.801 C 68.043 44.715 68.324 45.58 67.997 46.323 z" style="stroke: none; stroke-width: 1; stroke-dasharray: none; stroke-linecap: butt; stroke-linejoin: miter; stroke-miterlimit: 10; fill: rgb(38,185,153); fill-rule: nonzero; opacity: 1;" transform=" matrix(1 0 0 1 0 0) " stroke-linecap="round" />
	<path d="M 46.181 89.318 L 60.273 64.91 c 0.525 -0.909 -0.131 -2.045 -1.181 -2.045 l -28.185 0 c -1.05 0 -1.705 1.136 -1.181 2.045 l 14.092 24.409 C 44.344 90.227 45.656 90.227 46.181 89.318 z" style="stroke: none; stroke-width: 1; stroke-dasharray: none; stroke-linecap: butt; stroke-linejoin: miter; stroke-miterlimit: 10; fill: rgb(38,185,153); fill-rule: nonzero; opacity: 1;" transform=" matrix(1 0 0 1 0 0) " stroke-linecap="round" />
</g>
</g>
</svg>